<?xml version="1.0" encoding="utf-8"?>
<!-- Generator: Adobe Illustrator 16.0.0, SVG Export Plug-In . SVG Version: 6.00 Build 0)  -->
<!DOCTYPE svg PUBLIC "-//W3C//DTD SVG 1.1//EN" "http://www.w3.org/Graphics/SVG/1.1/DTD/svg11.dtd">
<svg version="1.1" id="_x3FC_h_1" xmlns="http://www.w3.org/2000/svg" xmlns:xlink="http://www.w3.org/1999/xlink" x="0px" y="0px"
	 width="250px" height="77px" viewBox="0 0 250 77" enable-background="new 0 0 250 77" xml:space="preserve">
<g>
	<path fill-rule="evenodd" clip-rule="evenodd" fill="#FFFFFF" d="M106.302,18.103c1.985-0.22,3.484-0.22,3.619-0.738
		c0.649-0.168,1.254-1.135,1.731-0.952c0.604,0.214,0.992,0.735,1.813,0.996c0.299,0.091,1.082,0.39,1.472,0.646
		c0.56,0.43,0.171,1.262,0.432,1.604c-0.566,0.381-0.992,0.82-1.73,0.82c-0.388,0.511-0.903,0.981-1.038,1.639
		c-0.432,0.078-0.597,0.298-0.694,0.738c-0.597,0.548-1.642,3.545-2.074,4.269c-0.388,0.086-0.335,0.396-0.552,0.563
		c-0.396,0.123-0.352,0.123-0.441,0.526c-0.813,0.213-1.679,0.47-2.536,0.769v-2.545l1.193-0.306l1.18-3.016l1.082-2.992v-0.857
		l-3.455,1.25V18.103L106.302,18.103z M106.302,43.882c0.47-0.041,0.947-0.082,1.418-0.126c3.672-0.299,7.171-0.731,9.417-2.549
		c0.426-0.347,0.426-0.947,0.605-1.511c0.306-0.955,0.693-2.284,0.648-3.235c0.262,0.086,0.434,0.597,0.522,0.951
		c0.344,0.947,0.299,2.418,1.254,3.019c0.731,0.43,1.599,1.56,2.45,1.862c-0.247,0.25-0.635,0.343-0.725,0.731
		c-1.211,0.943-2.277,2.115-4.031,2.858c-1.582,0.686-3.396,0.806-5.045,1.074H112.6c-1.769,0.303-3.97,0.687-6.298,0.648V43.882
		L106.302,43.882z M95.106,20.61l-0.692,0.508c2.298,2.851,4.888,1.903,6.268,2.159c0.389,0.087,0.247,0.65,0.247,1.385
		c0.052,0.687-0.03,1.951-0.119,3.149c-0.777,0.702-4.717,1.694-4.754,1.903l-0.128-0.131h0.165
		c-0.344,0.045-0.209-1.119,0.098-1.94c0.388-0.996,1.126-2.634,0.73-3.097c-0.828-1.045-2.246-2.519-2.246-2.474
		c-0.261,1.854-0.821,4.802-1.254,7.775c-0.656,4.355-1.127,10.411,0.253,12.649c0,0.358,0.307,0.705,0.307,0.738l0.045,0.14
		c0.216,0.465,0.604,0.506,0.784,0.857l0.56,0.515c2.716,2.026,4.828,1.82,7.559,2.463c1.128,0.258,2.24,0.395,3.374,0.395v-3.724
		c-2.605,0.181-5.373,0.27-7.351-0.506c-1.247-0.434-2.291-1.005-2.896-1.903c-1.037-1.471-1.082-3.725-0.949-6.575v-0.257
		l0.083-0.041v-0.426c0.142-0.604,0.098-1.903,0.604-1.944c0.44-0.044,1.208,0.38,2.037,0.34c0.478,0,0.993-0.299,1.471-0.649
		l0.73-0.478c0.821-0.16,1.463-0.646,2.337-1.03c1.201-0.522,2.59-0.992,3.933-1.429v-2.545l-3.426,0.858l0.963-2.197l0.299-1.131
		l-0.567-2.194l2.68-1.257h0.052v-2.415c-0.792,0.075-1.598,0.173-2.463,0.34C100.115,19.174,96.018,20.737,95.106,20.61z"/>
	<path fill-rule="evenodd" clip-rule="evenodd" fill="#FFFFFF" d="M137.707,18.103c1.932-0.22,3.455-0.22,3.626-0.738
		c0.604-0.168,1.217-1.135,1.679-0.952c0.612,0.214,1.045,0.735,1.814,0.996c0.298,0.091,1.126,0.39,1.477,0.646
		c0.561,0.43,0.164,1.262,0.434,1.604c-0.523,0.381-1,0.82-1.731,0.82c-0.396,0.511-0.858,0.981-1.03,1.639
		c-0.447,0.078-0.62,0.298-0.693,0.738c-0.605,0.548-1.649,3.545-2.037,4.269c-0.396,0.086-0.396,0.396-0.56,0.563
		c-0.396,0.123-0.396,0.123-0.472,0.526c-0.79,0.213-1.641,0.47-2.506,0.769v-2.545l1.209-0.306l1.118-3.016l1.074-2.992v-0.857
		l-3.401,1.25V18.103L137.707,18.103z M137.707,43.882c0.469-0.041,0.954-0.082,1.38-0.126c3.672-0.299,7.216-0.731,9.417-2.549
		c0.434-0.347,0.434-0.947,0.604-1.511c0.299-0.955,0.739-2.284,0.643-3.235c0.269,0.086,0.44,0.597,0.567,0.951
		c0.344,0.947,0.261,2.418,1.261,3.019c0.725,0.43,1.59,1.56,2.447,1.862c-0.253,0.25-0.641,0.343-0.731,0.731
		c-1.246,0.943-2.336,2.115-4.059,2.858c-1.598,0.686-3.366,0.806-5.015,1.074h-0.247c-1.775,0.303-3.978,0.687-6.268,0.648V43.882
		L137.707,43.882z M126.512,20.61l-0.687,0.508c2.292,2.851,4.836,1.903,6.217,2.159c0.388,0.087,0.262,0.65,0.306,1.385
		c0,0.687-0.096,1.951-0.171,3.149c-0.777,0.702-4.717,1.694-4.754,1.903l-0.09-0.131h0.172c-0.381,0.045-0.254-1.119,0.045-1.94
		c0.388-0.996,1.172-2.634,0.738-3.097c-0.783-1.045-2.246-2.519-2.246-2.474c-0.217,1.854-0.821,4.802-1.254,7.775
		c-0.649,4.355-1.082,10.411,0.254,12.649c0.045,0.358,0.344,0.705,0.344,0.738l0.044,0.14c0.217,0.465,0.568,0.506,0.739,0.857
		l0.56,0.515c2.724,2.026,4.881,1.82,7.56,2.463c1.127,0.258,2.283,0.395,3.419,0.395v-3.724c-2.598,0.181-5.359,0.27-7.396-0.506
		c-1.209-0.434-2.291-1.005-2.888-1.903c-0.993-1.471-1.082-3.725-0.911-6.575v-0.257l0.045-0.041v-0.426
		c0.172-0.604,0.128-1.903,0.605-1.944c0.432-0.044,1.208,0.38,2.029,0.34c0.515,0,1.037-0.299,1.508-0.649l0.7-0.478
		c0.821-0.16,1.471-0.646,2.373-1.03c1.165-0.522,2.546-0.992,3.935-1.429v-2.545l-3.464,0.858l1.008-2.197l0.254-1.131
		l-0.567-2.194l2.731-1.257h0.038v-2.415c-0.776,0.075-1.649,0.173-2.515,0.34C131.475,19.174,127.378,20.737,126.512,20.61z"/>
	<path fill-rule="evenodd" clip-rule="evenodd" fill="#FFFFFF" d="M173.82,19.397h0.514v0.172l0.173-0.172v0.172
		c0.179-0.172,0.515-0.172,0.865-0.172v-0.172c0.694-0.178,1.56-0.178,2.418-0.178c0.351-0.173,0.865-0.341,1.388-0.341
		c0.694,0,3.843-0.529,3.843,0c0.173-0.175,0.516-0.347,0.867-0.347c0.335,0,0.679,0.172,1.036,0.347l1.03-0.175l0.351,0.343
		c0.171,0.173,0.351,0.522,0.687,0.87c0.179,0.168,0.344,0.519,0.694,0.865h0.179c-0.179,0.171-0.179,0.34-0.179,0.687l0.179,0.302
		c-0.529,0.176-0.873,0.336-1.209,0.694c-0.521-0.175-0.872-0.175-1.216-0.175c-0.351-0.184-0.687-0.344-1.03-0.52
		c-0.358,0-0.521,0-0.694,0l-0.351-0.302c-1.209-0.179-2.463-0.347-3.672-0.516V20.61h-0.686l-0.352,0.34h-0.515l-0.351-0.34
		c-0.679,0-1.201,0.171-1.724,0.34l-0.343-0.169c-0.658,0-1.3,0-1.903,0V19.397L173.82,19.397z M173.82,24.323
		c0.902-0.179,1.813-0.303,2.769-0.478c0.343,0.175,0.687,0.343,1.037,0.701c0.164,0.164,0.515,0.336,0.857,0.683
		c0,0.339,0,0.687,0,1.209l-0.343,0.175l-0.351,0.512l-0.679,0.519l-0.358,0.474l-0.687,0.523c-0.18,0.167-0.343,0.511-0.516,0.865
		c-0.656,0-1.217,0-1.73,0v-1.34l0.687-0.049l0.344-0.642l0.351-0.351c0-0.512,0.171-1.033,0.35-1.384
		c-0.611-0.083-1.217-0.124-1.73-0.173V24.323L173.82,24.323z M173.82,31.401c1.074,0,2.246,0.041,3.455,0.172
		c0.178,0,0.351,0.179,0.701,0.347l0.507-0.519c0.523-0.176,1.046-0.176,1.553-0.176l0.357-0.171l0.166,0.171
		c0.342-0.171,0.857-0.171,1.425-0.171v0.171c0.343,0,0.686,0,1.209,0.176l0.343,0.519c0.515,0,0.352,0.689,1.03,0.689
		c-0.157,0.523-0.157,1.034-0.157,1.564h-0.187v0.467l-0.172,0.347l-0.515,0.171l-0.172,0.523h-0.171
		c-0.173,0.163-0.173,0.519-0.173,0.865v0.511l-0.351,0.176c-0.343,0.694-0.857,0.343-0.857,1.903
		c-0.179,0.175-0.396,0.347-0.561,0.693c-0.179,0.34-0.179,0.858-0.179,1.336l-0.68,0.526c-1.045-0.18-1.91-0.18-2.768-0.18v-0.175
		c-0.515,0-0.873,0-1.217,0c-1.075,0-2.201-0.384-2.589-0.086v-1.47c1.679-0.344,3.499-0.646,5.357-0.821
		c0-0.511,0.171-1.033,0.352-1.549h0.163c0-0.354,0-0.697,0.18-0.865l0.344-0.347c0-1.213,0.178-2.205,0.344-3.243l-0.344-0.348
		c-1.038-0.171-2.075-0.171-2.94-0.171c-1.045,0-1.903,0-2.769,0.171l-0.687,0.217V31.401L173.82,31.401z M173.82,36.715h0.687
		l0.344-0.344c0.521,0,1.036,0,1.559,0.176c0.344-0.176,0.866-0.347,1.381-0.519v-0.347l-0.679-0.694
		c-0.522-0.172-1.045-0.172-1.561-0.172c-0.656,0.172-1.253,0.343-1.73,0.601V36.715L173.82,36.715z M164.97,53.867h0.857v-0.168
		c1.209,0,2.426,0,3.806,0c0-0.317,0.859-0.646,1.896-0.646l0.351-0.351l0.516-0.515c0-0.358,0-0.702,0.171-1.041
		c0-1.205,0-2.426,0.172-3.459v-0.813h-0.172c0-0.526,0-0.865,0-1.217h-0.171c0-0.519,0.171-1.029,0.343-1.384
		c-0.172-0.519-0.172-1.038-0.172-1.376c-0.687,0,0.344-1.206,0.344-1.206h0.738l0.173-0.44v-1.47l-0.173,0.048l-0.738,0.172
		l-0.515-0.172c-0.18-0.347-0.343-0.693-0.343-1.045c0-0.519,0-1.037,0-1.373l0.686-0.529c0.351-0.083,0.701-0.119,1.083-0.168
		v-1.299l-0.173,0.09c-0.56-0.165-0.91-0.165-1.253-0.165v-0.525l-0.343-0.175l-0.173-0.34c-0.351-0.127-0.521-0.306-0.693-0.478
		c0-0.347,0-0.52,0.172-0.69c0.694-0.176,1.38-0.176,2.29-0.176l0.173-0.131v-1.425c-0.471,0-0.948,0-1.426,0
		c-0.18-0.347-0.343-0.522-0.516-0.687c0-0.347,0-0.698,0-1.038c0.336-0.171,0.858-0.171,1.426-0.171h0.516v-1.34
		c-0.382,0-0.732,0.049-1.083,0.123c-0.686,0-0.343-0.813-0.686-0.813c0-0.351,0-0.694,0-1.037c0.163-0.347,0.343-0.697,0.514-0.87
		c0.39,0,0.813,0,1.255,0v-1.245l-0.344,0.041c-0.389-0.176-0.567-0.176-0.739-0.176l-0.686-0.687c0-0.351,0.163-0.697,0.343-1.037
		h-0.18c0-0.53,0-0.866,0-1.168l0.351-0.179l0.172-0.337c0.351,0,0.701,0,1.083,0v-1.384v-0.172
		c-0.516-0.178-0.911-0.178-1.255-0.178c0-0.516,0-1.035,0-1.549h0.172c0-0.694,0-1.217,0.172-1.728h0.179
		c-0.179-0.531-0.179-0.829-0.179-1.165l-0.857-0.354h-0.523v-0.165h-0.515c-0.521-0.183-1.037-0.351-1.381-0.351l-0.179,0.168
		l-0.172,0.348c0.523,0,0.523,0.816,0.523,0.987h0.171c0,0.531,0,1.218,0.18,1.907h0.163c0,0.352,0,0.694,0,1.03l0.344,0.183
		l-0.171,0.347l-0.516,0.341v0.35c-0.522,0.172-0.858,0.348-1.217,0.516c-0.507,0-1.03,0-1.552,0c-0.336,0-0.68,0.171-1.03,0.351
		c-2.29,0.168-4.545,0.347-6.793,0.518V20.61c-0.336,0-0.678,0-1.036,0l-0.336,0.508c-0.352,0-0.694,0-0.865,0l0.342,0.31
		l0.172,0.347l0.522,0.16c0.165,0.184,0.344,0.358,0.694,0.53c0.171,0,0.336,0,0.687,0c0.345,0,0.681,0,1.211,0v-0.172
		c0,0,2.418,0.172,3.455-0.358l0.343-0.336c1.075-0.171,2.12-0.171,3.328-0.171l0.508-0.31c0.53,0,1.045,0,1.567,0.179l0.343,0.638
		c-0.163,0.358-0.163,0.71-0.163,1.046l0.163,0.865c-0.514,0-0.514,0.519-0.514,1.208l-0.523,0.176c0,0.176,0.172,0.512,0.351,0.862
		l0.344,0.168c0,0.354,0,0.694,0,1.037c0,0.347,0,0.82,0,1.344c-0.522,0-1.037,0-1.567,0.167v-0.167
		c-0.508-0.176-1.022-0.352-1.373-0.352l-0.164-0.347l-0.344-0.131v-0.687h-0.186l-0.165-0.865c-0.351,0-0.694,0-1.037,0
		l-0.351,0.521c0,0.173,0,0.344,0.18,0.694h-0.18c0,0.813,0,1.854,0.18,2.893c0.335,0,0.679,0,1.208,0.167l0.351-0.343l0.344-0.516
		c0.515,0,1.029,0,1.537,0v0.172c0.53,0,1.045,0,1.747,0.168l0.163,0.519c-0.163,0.18-0.163,0.52-0.163,0.866
		c0,0.172,0,0.519,0,0.869c-0.523,0-0.874,0-1.217,0.168c-0.351,0-0.687,0-0.866,0.171l-0.344,0.867l0.172,0.167
		c0.688,0,1.381,0,2.075,0l0.343,0.352c-0.163,0.646-0.343,1.346-0.343,2.205l-0.344-0.172c-0.351,0-0.693,0.172-1.044,0.343
		c-1.038,0-1.896,0-2.762,0v0.176l-0.522,0.168l0.179,0.519c0.344,0,1.21,0.343,1.21,0.865h0.515v-0.171
		c1.045-0.18,2.074-0.352,3.111-0.352l0.344,0.69l-0.344,0.694l0.173,0.351c-0.173,0.339-0.336,0.69-0.516,1.038l-0.694,0.339
		c-1.029,0-1.896,0-2.754,0.139v0.171c-0.351,0-0.529,0-0.701,0l-0.857,0.168c-0.396,0-0.568,0.172-0.739,0.347v0.348
		c0.171,0,0.343,0.171,0.739,0.343l0.679,0.168l0.351,0.354c0.344-0.183,0.694-0.183,1.209-0.183l0.865-0.172v-0.168
		c0.18-0.172,0.516-0.172,0.866-0.172c0.179,0,0.515,0,0.866,0.172l0.514,0.168v0.527h-0.163c0.163,0.338,0.336,0.689,0.507,1.036
		c-0.507,0-0.507,0.862-0.507,1.724c-0.18,0.352-0.18,0.69-0.18,1.03l-0.344,0.187c0,0.302,0,0.635,0,0.984l-0.179,0.516
		l-0.336,0.522l0.164,0.351l-0.522,1.029c-0.351,0-0.687,0.176-0.858,0.344l-0.351,0.526l-0.857,0.339
		c-0.351,0.173-0.516,0.344-0.694,0.52c-0.351,0-0.694,0-0.858,0.183c-0.351,0-0.567,0.164-0.739,0.343l-0.343,0.347l-0.522,0.336
		l0.179,0.485C164.059,53.699,164.401,53.699,164.97,53.867z"/>
	<path fill-rule="evenodd" clip-rule="evenodd" fill="#FFFFFF" d="M215.934,17.45h0.231l0.515,0.519c1.03,0,1.725-0.171,3.104,1.205
		v0.694l-0.522,0.347c-0.516,0-1.03,0-1.552,0.176c-0.643,0-1.21,0.041-1.776,0.089V17.45L215.934,17.45z M215.934,24.409
		c0.351,0.037,0.702,0.037,1.09,0.085c0.857-0.171,1.723-0.35,2.761-0.35c0.18,0,3.844-0.475,3.844,0.179
		c0.521,0.171,1.044,0.339,1.73,0.511c0,0.176,0,0.515,0,0.865c-0.351,0-0.515,0.172-0.687,0.347c-0.693,0-1.253,0-1.775,0h-0.351
		c-2.232,0-4.492,0-6.612,0V24.409L215.934,24.409z M215.934,36.028h0.231V36.2c0.164,0,0.335,0,0.686,0v0.171h0.509
		c0,0.475,0.521-0.171,0.521,0.993l-0.687,0.683c-0.432,0.146-0.865,0.22-1.261,0.313V36.028L215.934,36.028z M215.934,44.666V41.08
		c0.702,0.172,1.388,0.393,2.12,0.612l0.521,0.851c0,0.999,0.865,2.037-0.521,2.728h-0.694c-0.509-0.16-1.03-0.343-1.374-0.522
		L215.934,44.666L215.934,44.666z M209.202,49.555c0.171,0,0.351,0,0.702,0l0.336-0.307c0-0.697,0.171-1.389,0.343-2.071
		c-0.172-0.354-0.172-0.697-0.172-1.041c0-0.351,0.172-0.525,0.344-0.697c0-0.69,0-1.205,0.178-1.716h-0.178
		c0-0.824,0.178-1.691,0.351-2.385c-0.522,0,0-0.34,0-0.34h-0.173c0-0.697,0-1.216,0.173-1.738l0.343-0.348l1.03-0.339l0.701,0.168
		c0.515-0.168,1.202-0.333,1.896-0.333v0.165l0.857-0.214v-2.331c-0.813,0-1.598,0.172-2.239,0.343c-0.687,0-1.381,0-2.082,0.176
		c-0.164-0.347-0.164-0.519-0.164-0.702l0.164-0.339l0.522-0.165l0.179-0.354c0.344-0.172,0.694-0.172,1.201-0.172l0.531-0.175
		c0.336-0.34,0.851-0.694,1.417-0.866v-0.683l-0.387-0.176l-0.18-0.347c-0.515-0.172-0.851-0.172-1.202-0.172
		c-0.351,0-0.687,0-1.037,0.172l-0.865-0.34h0.171c0-0.354,0-0.697,0.172-0.862l0.522-0.347c0.522-0.175,1.037-0.175,1.56-0.175
		l0.68-0.184c0.18-0.335,0.395-0.646,0.746-0.813l-0.352-0.865l-0.395-0.176l-0.337-0.343c-0.343-0.176-0.693-0.348-1.045-0.348
		l0.531-0.686l0.514-0.344c0-0.351,0.173-0.522,0.337-0.687l0.566-0.355h0.471v-1.637c-1.201-0.086-2.365-0.086-3.455-0.086
		l-0.516-0.354c0-1.164,0-2.194,0.172-3.231c0.522,0,1.045,0,1.56,0.172l0.172-0.172c0.693-0.094,1.336-0.168,2.067-0.258V17.45
		c-0.731,0-1.888-0.086-1.888,0.348l-0.531,0.339v0.348l-0.335,0.163l-0.172,0.526c-0.351,0-0.529,0.179-0.694,0.351
		c0-0.687,0-1.388,0.165-2.074l0.529-0.824v-0.854c-0.351-0.355-0.529-0.702-0.694-0.87c-0.351-0.172-0.701-0.172-1.029-0.172
		l-0.352-0.347c-1.028-0.347-1.909,0.183-2.073,0.183c0,0.504,0,1.206,0.164,1.893c0,0.514,0,0.992,0,1.679
		c-0.164,1.903-0.164,3.798-0.164,5.832l-0.18,0.176h-0.343v2.074c0.388,0,0.783,0.041,1.216,0.183v0.164h0.515l0.344,0.34
		c0,0.351,0,0.697,0,1.212l-0.507,0.348l-0.18,0.343c-0.522,0-0.865,0-1.209,0l-0.179-0.123v12.653
		c0.037,0.388,0.089,0.78,0.179,1.205l-0.179,0.183v6.344l0.179,0.347L209.202,49.555L209.202,49.555z M215.934,41.08
		c-0.516-0.126-1.037-0.302-1.552-0.426v-0.178h-0.688c-0.351,0-0.515,0.178-0.687,0.351c0,0.339,0,0.865,0.172,1.376
		c0,0.168,0.164,0.34,0.335,0.695l0.867,0.644l0.351,0.521c0.344,0,0.686-0.475,1.201,0.604V41.08L215.934,41.08z M208.337,49.069
		L208,48.897v-0.347h-0.873l-0.171-0.691c-0.172-0.35-0.396-0.515-0.561-0.683c-0.692,0-0.521-0.873-1.037-0.873v-0.519
		c-0.171-0.347-0.342-0.515-0.515-0.675c0.173-0.362,0.515-0.709,0.859-0.877c0.515-0.171,1.253-0.352,1.955-0.511
		c0-0.52,0.342-0.347,0.507-0.52l0.172-0.478V49.069L208.337,49.069z M208.337,41.338c-0.128-0.743-0.172-1.389-0.172-2.078
		c-1.381,0-2.642,0-3.843,0.179l-0.694,0.511c-0.516,0-0.858,0-1.201,0.187c-0.568,0-1.165,0-1.732,0.034v-2.624h0.171v-0.182
		c0.173,0,0.867-0.694,1.562,0c0.686-0.175,1.372-0.343,2.066-0.343v0.168c1.03-0.168,2.067-0.344,3.328-0.344
		c-0.163-0.299-0.163-0.646-0.163-1.001c-1.263,0-2.135-0.339-2.135,0.526c-0.68,0-1.381,0-2.067,0
		c-0.522-0.171-1.029-0.171-1.553-0.171l-0.865-0.519c-0.173-0.523-0.344-0.866-0.344-1.201v-0.054l0.171-0.298l1.038-0.354V33.61
		c0.173,0,0.336,0,0.687,0v-0.176c1.389-0.167,2.934-0.343,4.537-0.519v-0.347l-0.171-0.34l-0.561-0.179
		c-0.521,0-1.037,0.179-1.379,0.347c-0.523,0-1.038,0-1.389,0v-0.168c-0.858-0.179-1.552-0.354-2.254-0.354l-0.164-0.343
		l-0.345-0.512l-0.171-0.918v-0.086c0.344-0.34,0.68-0.511,1.209-0.687c0.336-0.179,0.687-0.179,1.209-0.179l0.344-0.344
		c-0.522-0.69-1.029-1.376-1.553-1.902c-0.432,0-0.865,0.049-1.209,0.049V25.01c0.516,0,1.038,0,1.545,0v-0.176
		c0.694-0.172,1.389-0.172,2.254-0.172l0.172-0.693l-0.343-0.299c-0.18-0.519-0.344-1.025-0.523-1.377
		c-0.171-1.022-0.343-2.078-0.343-3.119h-0.172c-0.172-0.689-0.172-1.376-0.172-2.026l0.172-0.343l1.038-0.347v0.168
		c0.521,0.179,1.036,0.346,1.552,0.521l-0.171,0.303l0.35,0.519c0,0.516,0,1.205,0,1.899c0,0.522,0.165,1.041,0.343,1.73
		c0,0.336,0.165,0.866,0.389,1.382h-0.224c0.224,0.354,0.396,0.824,0.566,1.343c0.389-0.135,0.776-0.135,1.21-0.179v2.074H208
		h-0.342c-0.531,0-0.874,0.183-1.263,0.347c-0.178,0.34-0.178,0.69-0.178,1.209l0.343,0.515c0.396,0,0.911,0.176,1.439,0.352
		l0.337,0.044V41.338L208.337,41.338z M200.694,46.875v-5.183h0.865c0,0.339,0.68,0.168,0.68,1.206l0.53,0.644
		c0,0.181,0,0.34,0,0.691l-0.343,0.515v0.69c-0.188,0.347-0.351,0.697-0.523,1.217l-1.038,0.339L200.694,46.875L200.694,46.875z
		 M200.694,23.846l0.516-0.176l0.164-0.519l0.358-0.347l0.171-0.34l0.523-0.347c0-0.69,0.163-1.381,0.343-1.903l-0.866-0.519
		c-0.432-0.086-0.828-0.127-1.209-0.127V23.846L200.694,23.846z M200.694,40.17v-2.624c-1.686,0.03-1.089,0.382-1.73,0.68h-0.516
		l-0.388,0.687h0.209c0,0.18,0.179,0.348,0.351,0.702c0.344,0.168,0.693,0.335,1.217,0.687L200.694,40.17L200.694,40.17z
		 M200.694,26.954V25.01c-1.343,0.044-2.589,0.044-3.853,0.179v0.16c-0.521,0-0.865,0-1.208,0c-1.389,0-2.762,0.184-3.979,0.351
		v0.172c-1.896,0-2.291,0.53-3.142,0.694c0,0.34,0,0.69,0,1.037c0.164,0.172,0.336,0.515,0.686,0.862
		c0.911-0.176,1.77-0.176,2.814-0.176c0.164-0.172,0.336-0.347,0.687-0.347c1.209-0.168,2.419-0.34,3.62-0.34
		C196.32,27.125,197.446,27.088,200.694,26.954L200.694,26.954z M200.694,19.569c-0.439-0.045-0.857-0.045-1.208-0.045
		c-0.522-0.351-0.866-0.687-1.217-0.877l-0.39,0.19c-0.18,0.515-0.18,1.03-0.18,1.553l0.36,0.347l-0.181,0.343
		c0,0.19,0.181,0.348,0.39,0.694l0.521,0.519c0,0.172,0.173,0.512,0.344,0.858l0.352,0.183l0.351,0.471h0.679v0.164l0.179-0.123
		V19.569L200.694,19.569z M200.694,41.692h-0.179c0-1.216-0.515,0.168-0.515,0.168l-0.351,0.511l-0.516,0.527l-0.344,0.305
		l0.173,0.339c-0.173,0.34-0.344,0.691-0.344,1.206l0.344,0.522c0,0.34,0.35,1.209,1.037,1.209l0.343,0.343l0.351,0.053V41.692z"/>
	<path fill-rule="evenodd" clip-rule="evenodd" fill="#DAB866" d="M67.501,7.774c-4.104,0-7.865,1.426-10.85,3.754
		c2.559,2.597,4.402,5.836,5.23,9.503l0.604-0.686c1.299-1.298,3.067-2.07,5.015-2.07c3.889,0,7.083,3.186,7.083,7.073
		c0,2.001-0.784,3.766-2.075,5.02c-1.284,1.295-3.066,2.115-5.008,2.115c-4.798,0.519-5.396,0.519-7.73,1.858
		c-0.739,0.433-1.687,1.037-3.067,1.858c4.836,5.443,4.79,8.506,5.007,9.238c0.09,0.444-0.171,0.444,2.336-1.639
		c0.731-0.597,2.112-0.775,3.455-0.857c4.844,0,9.239-1.944,12.402-5.149c3.187-3.193,5.182-7.601,5.182-12.444
		C85.085,15.682,77.173,7.774,67.501,7.774z"/>
	<path fill-rule="evenodd" clip-rule="evenodd" fill="#C7000B" d="M85.085,50.759c0-4.07-1.425-7.86-3.764-10.843
		c-2.588,2.549-5.834,4.402-9.506,5.224l0.693,0.604c1.291,1.302,2.075,3.078,2.075,5.015c0,3.927-3.194,7.128-7.083,7.128
		c-1.947,0-3.716-0.821-5.015-2.116c-1.291-1.258-2.119-3.067-2.119-5.012c-0.507-4.749-0.507-5.405-1.858-7.689
		c-0.425-0.776-1.03-1.731-1.857-3.067c-5.438,4.843-8.505,4.746-9.251,4.97c-0.425,0.139-0.425-0.175,1.649,2.329
		c0.604,0.782,0.776,2.115,0.873,3.458c0,4.832,1.978,9.235,5.131,12.44c3.201,3.194,7.604,5.138,12.447,5.138
		C77.173,68.337,85.085,60.423,85.085,50.759z"/>
	<path fill-rule="evenodd" clip-rule="evenodd" fill="#DAB866" d="M42.22,68.337c4.062,0,7.867-1.38,10.849-3.753
		c-2.549-2.557-4.399-5.832-5.265-9.467l-0.56,0.653c-1.306,1.295-3.077,2.116-5.024,2.116c-3.926,0-7.126-3.201-7.126-7.128
		c0-1.937,0.82-3.713,2.073-5.015c1.291-1.302,3.067-2.074,5.053-2.074c4.756-0.557,5.404-0.508,7.703-1.851
		c0.77-0.441,1.717-1.041,3.057-1.87c-4.833-5.433-4.795-8.548-4.967-9.234c-0.135-0.437,0.134-0.437-2.321,1.597
		c-0.793,0.646-2.166,0.821-3.472,0.862c-4.873,0-9.238,1.984-12.44,5.186c-3.193,3.153-5.138,7.553-5.138,12.399
		C24.642,60.423,32.504,68.337,42.22,68.337z"/>
	<path fill-rule="evenodd" clip-rule="evenodd" fill="#C7000B" d="M24.642,25.349c0,4.116,1.381,7.874,3.757,10.9
		c2.552-2.605,5.829-4.456,9.471-5.284l-0.702-0.597c-1.253-1.254-2.073-3.019-2.073-5.02c0-3.888,3.2-7.073,7.126-7.073
		c1.947,0,3.719,0.772,5.024,2.07c1.283,1.306,2.074,3.059,2.074,5.003c0.553,4.806,0.508,5.448,1.852,7.743
		c0.425,0.769,1.029,1.724,1.861,3.067c5.433-4.833,8.508-4.792,9.239-4.971c0.433-0.134,0.433,0.138-1.599-2.381
		c-0.648-0.725-0.812-2.111-0.857-3.459c0-4.831-1.985-9.242-5.187-12.395c-3.205-3.194-7.563-5.18-12.408-5.18
		C32.504,7.774,24.642,15.682,24.642,25.349z"/>
	<g>
		<path fill-rule="evenodd" clip-rule="evenodd" fill="#DAB866" d="M91.607,57.788h4.979c1.215,0,2.049,0.058,2.499,0.176
			c0.665,0.174,1.192,0.485,1.581,0.937c0.386,0.452,0.58,0.995,0.58,1.629c0,0.457-0.102,0.867-0.307,1.23
			c-0.207,0.361-0.504,0.673-0.893,0.932c-0.251,0.165-0.591,0.309-1.023,0.427c0.545,0.107,0.959,0.236,1.243,0.389
			c0.43,0.226,0.771,0.548,1.021,0.967c0.249,0.421,0.374,0.896,0.374,1.422c0,0.512-0.123,0.985-0.368,1.421
			c-0.246,0.435-0.591,0.793-1.039,1.074c-0.448,0.278-0.97,0.457-1.563,0.534c-0.597,0.08-1.211,0.119-1.84,0.119h-5.245v-0.678
			h0.354c0.34,0,0.572-0.056,0.695-0.169c0.182-0.156,0.271-0.413,0.271-0.773v-7.818c0-0.368-0.028-0.622-0.082-0.757
			c-0.057-0.136-0.138-0.234-0.248-0.292c-0.11-0.061-0.322-0.091-0.637-0.091h-0.354V57.788L91.607,57.788z M94.31,58.681v4.115
			h1.924c0.9,0,1.517-0.047,1.85-0.138c0.517-0.144,0.913-0.392,1.187-0.741c0.274-0.347,0.412-0.796,0.412-1.344
			c0-0.463-0.125-0.847-0.373-1.154c-0.249-0.312-0.584-0.521-1.001-0.634c-0.271-0.069-0.834-0.104-1.688-0.104H94.31L94.31,58.681
			z M94.31,63.572v3.691c0,0.372,0.015,0.592,0.046,0.661c0.038,0.097,0.12,0.166,0.24,0.201c0.085,0.027,0.325,0.041,0.722,0.041
			h1.022c1.014,0,1.738-0.061,2.173-0.182c0.433-0.121,0.804-0.374,1.11-0.766c0.305-0.388,0.458-0.859,0.458-1.404
			c0-0.464-0.125-0.874-0.373-1.232c-0.249-0.354-0.592-0.614-1.031-0.773c-0.438-0.157-1.218-0.237-2.337-0.237H94.31L94.31,63.572
			z M106.938,57.788h1.251l3.239,9.412c0.158,0.472,0.319,0.785,0.483,0.938c0.161,0.15,0.381,0.229,0.655,0.229h0.166v0.678h-3.718
			v-0.678c0.12-0.012,0.235-0.017,0.351-0.017c0.24,0,0.399-0.028,0.474-0.08c0.146-0.103,0.218-0.231,0.218-0.386
			c0-0.113-0.069-0.392-0.21-0.829l-0.707-2.177h-3.771l-0.813,2.433c-0.085,0.254-0.126,0.427-0.126,0.523
			c0,0.107,0.025,0.201,0.077,0.281c0.054,0.082,0.126,0.143,0.215,0.182c0.09,0.042,0.235,0.061,0.435,0.061
			c0.136,0,0.246,0.003,0.33,0.009v0.678h-3.126v-0.678c0.289,0,0.499-0.03,0.627-0.094c0.125-0.061,0.237-0.16,0.333-0.298
			c0.095-0.135,0.22-0.424,0.375-0.865L106.938,57.788L106.938,57.788z M105.635,64.085h3.227l-1.609-4.843L105.635,64.085z"/>
		<path fill-rule="evenodd" clip-rule="evenodd" fill="#DAB866" d="M118.297,57.788h4.979c1.215,0,2.049,0.058,2.499,0.176
			c0.665,0.174,1.192,0.485,1.581,0.937c0.387,0.452,0.581,0.995,0.581,1.629c0,0.457-0.103,0.867-0.307,1.23
			c-0.208,0.361-0.504,0.673-0.894,0.932c-0.251,0.165-0.591,0.309-1.022,0.427c0.544,0.107,0.959,0.236,1.243,0.389
			c0.43,0.226,0.77,0.548,1.021,0.967c0.248,0.421,0.374,0.896,0.374,1.422c0,0.512-0.123,0.985-0.368,1.421
			c-0.246,0.435-0.592,0.793-1.04,1.074c-0.447,0.278-0.969,0.457-1.563,0.534c-0.597,0.08-1.21,0.119-1.84,0.119h-5.245v-0.678
			h0.354c0.34,0,0.573-0.056,0.696-0.169c0.182-0.156,0.271-0.413,0.271-0.773v-7.818c0-0.368-0.027-0.622-0.082-0.757
			c-0.056-0.136-0.138-0.234-0.248-0.292c-0.109-0.061-0.322-0.091-0.637-0.091h-0.354V57.788L118.297,57.788z M120.999,58.681
			v4.115h1.924c0.9,0,1.518-0.047,1.85-0.138c0.517-0.144,0.914-0.392,1.188-0.741c0.273-0.347,0.412-0.796,0.412-1.344
			c0-0.463-0.126-0.847-0.374-1.154c-0.248-0.312-0.583-0.521-1.001-0.634c-0.271-0.069-0.833-0.104-1.688-0.104H120.999
			L120.999,58.681z M120.999,63.572v3.691c0,0.372,0.016,0.592,0.046,0.661c0.039,0.097,0.12,0.166,0.241,0.201
			c0.084,0.027,0.324,0.041,0.721,0.041h1.023c1.013,0,1.737-0.061,2.172-0.182c0.433-0.121,0.804-0.374,1.11-0.766
			c0.305-0.388,0.458-0.859,0.458-1.404c0-0.464-0.125-0.874-0.373-1.232c-0.248-0.354-0.591-0.614-1.031-0.773
			c-0.438-0.157-1.218-0.237-2.336-0.237H120.999L120.999,63.572z M133.627,57.788h1.251l3.239,9.412
			c0.158,0.472,0.32,0.785,0.483,0.938c0.161,0.15,0.381,0.229,0.655,0.229h0.166v0.678h-3.717v-0.678
			c0.12-0.012,0.235-0.017,0.351-0.017c0.24,0,0.398-0.028,0.473-0.08c0.146-0.103,0.218-0.231,0.218-0.386
			c0-0.113-0.069-0.392-0.21-0.829l-0.706-2.177h-3.771l-0.813,2.433c-0.084,0.254-0.125,0.427-0.125,0.523
			c0,0.107,0.025,0.201,0.077,0.281c0.054,0.082,0.125,0.143,0.214,0.182c0.09,0.042,0.236,0.061,0.436,0.061
			c0.136,0,0.246,0.003,0.33,0.009v0.678h-3.127v-0.678c0.289,0,0.499-0.03,0.627-0.094c0.125-0.061,0.238-0.16,0.333-0.298
			c0.095-0.135,0.22-0.424,0.376-0.865L133.627,57.788L133.627,57.788z M132.325,64.085h3.227l-1.609-4.843L132.325,64.085z"/>
		<path fill-rule="evenodd" clip-rule="evenodd" fill="#DAB866" d="M144.987,57.788h4.979c1.216,0,2.049,0.058,2.5,0.176
			c0.665,0.174,1.191,0.485,1.581,0.937c0.386,0.452,0.58,0.995,0.58,1.629c0,0.457-0.102,0.867-0.307,1.23
			c-0.207,0.361-0.504,0.673-0.893,0.932c-0.251,0.165-0.592,0.309-1.023,0.427c0.545,0.107,0.959,0.236,1.243,0.389
			c0.43,0.226,0.771,0.548,1.021,0.967c0.249,0.421,0.374,0.896,0.374,1.422c0,0.512-0.123,0.985-0.368,1.421
			c-0.246,0.435-0.591,0.793-1.039,1.074c-0.447,0.278-0.97,0.457-1.563,0.534c-0.596,0.08-1.21,0.119-1.84,0.119h-5.244v-0.678
			h0.353c0.341,0,0.573-0.056,0.696-0.169c0.182-0.156,0.271-0.413,0.271-0.773v-7.818c0-0.368-0.028-0.622-0.082-0.757
			c-0.057-0.136-0.139-0.234-0.248-0.292c-0.11-0.061-0.322-0.091-0.638-0.091h-0.353V57.788L144.987,57.788z M147.689,58.681v4.115
			h1.923c0.901,0,1.518-0.047,1.851-0.138c0.517-0.144,0.913-0.392,1.187-0.741c0.273-0.347,0.412-0.796,0.412-1.344
			c0-0.463-0.125-0.847-0.373-1.154c-0.248-0.312-0.583-0.521-1-0.634c-0.272-0.069-0.835-0.104-1.689-0.104H147.689L147.689,58.681
			z M147.689,63.572v3.691c0,0.372,0.015,0.592,0.046,0.661c0.038,0.097,0.12,0.166,0.24,0.201c0.084,0.027,0.325,0.041,0.722,0.041
			h1.022c1.014,0,1.737-0.061,2.173-0.182c0.433-0.121,0.803-0.374,1.11-0.766c0.305-0.388,0.457-0.859,0.457-1.404
			c0-0.464-0.125-0.874-0.373-1.232c-0.248-0.354-0.591-0.614-1.031-0.773c-0.438-0.157-1.218-0.237-2.336-0.237H147.689
			L147.689,63.572z M156.311,57.788h4.037v0.678h-0.271c-0.327,0-0.563,0.035-0.703,0.104c-0.11,0.055-0.191,0.146-0.248,0.275
			c-0.054,0.129-0.082,0.389-0.082,0.776v5.063c0,0.903,0.103,1.573,0.305,2.008c0.205,0.436,0.542,0.802,1.016,1.097
			c0.476,0.295,0.995,0.443,1.563,0.443c0.574,0,1.113-0.16,1.628-0.477c0.512-0.316,0.87-0.691,1.074-1.127
			c0.207-0.435,0.31-1.121,0.31-2.061v-4.864c0-0.358-0.033-0.617-0.097-0.774c-0.066-0.159-0.164-0.275-0.298-0.353
			c-0.133-0.074-0.337-0.112-0.618-0.112h-0.292v-0.678h3.484v0.678h-0.24c-0.395,0-0.665,0.079-0.813,0.242
			c-0.146,0.162-0.22,0.466-0.22,0.914v5.185c0,0.945-0.166,1.735-0.496,2.366c-0.331,0.631-0.812,1.133-1.441,1.502
			c-0.629,0.366-1.363,0.551-2.2,0.551c-0.79,0-1.512-0.188-2.169-0.565c-0.655-0.374-1.136-0.846-1.446-1.407
			c-0.307-0.562-0.46-1.268-0.46-2.115v-5.516c0-0.354-0.03-0.605-0.09-0.749c-0.059-0.144-0.146-0.245-0.261-0.312
			c-0.115-0.063-0.312-0.096-0.596-0.096h-0.374V57.788L156.311,57.788z M175.46,57.788H176l0.802,3.471l-0.691,0.231
			c-0.44-0.97-1.026-1.735-1.755-2.292c-0.602-0.466-1.267-0.699-1.996-0.699c-0.439,0-0.837,0.085-1.187,0.253
			c-0.349,0.171-0.611,0.389-0.785,0.658c-0.178,0.268-0.265,0.543-0.265,0.821c0,0.253,0.067,0.496,0.202,0.732
			c0.136,0.237,0.343,0.446,0.619,0.625c0.274,0.18,0.728,0.369,1.354,0.567l1.96,0.606c0.24,0.074,0.589,0.221,1.044,0.436
			c0.458,0.215,0.813,0.44,1.067,0.68c0.255,0.24,0.455,0.532,0.599,0.879c0.146,0.348,0.217,0.722,0.217,1.124
			c0,0.893-0.363,1.672-1.09,2.342c-0.727,0.669-1.668,1.003-2.822,1.003c-0.593,0-1.125-0.094-1.596-0.278
			c-0.469-0.185-0.976-0.513-1.52-0.986l-0.346,1.083h-0.527l-0.696-4.05l0.691-0.148c0.256,0.743,0.594,1.377,1.018,1.895
			c0.423,0.521,0.891,0.912,1.402,1.179c0.515,0.265,1.036,0.397,1.566,0.397c0.721,0,1.354-0.234,1.893-0.7
			c0.45-0.391,0.676-0.851,0.676-1.383c0-0.487-0.164-0.887-0.489-1.198c-0.329-0.311-0.921-0.601-1.77-0.867l-1.873-0.579
			c-1.052-0.327-1.793-0.746-2.223-1.256c-0.431-0.51-0.646-1.097-0.646-1.755c0-0.515,0.142-0.991,0.419-1.43
			c0.279-0.438,0.709-0.805,1.29-1.099c0.578-0.295,1.213-0.443,1.903-0.443c0.578,0,1.134,0.107,1.663,0.325
			c0.374,0.151,0.72,0.366,1.034,0.646L175.46,57.788L175.46,57.788z M178.446,57.788h3.991v0.678h-0.308
			c-0.286,0-0.496,0.044-0.624,0.129c-0.13,0.086-0.225,0.21-0.284,0.366c-0.059,0.16-0.09,0.469-0.09,0.926v7.256
			c0,0.366,0.034,0.628,0.098,0.782c0.064,0.154,0.156,0.265,0.271,0.336c0.117,0.069,0.327,0.105,0.629,0.105h0.308v0.678h-3.991
			v-0.678h0.33c0.294,0,0.504-0.036,0.627-0.11c0.123-0.072,0.21-0.177,0.266-0.314c0.054-0.138,0.082-0.405,0.082-0.799v-7.404
			c0-0.422-0.028-0.705-0.082-0.849c-0.056-0.146-0.143-0.253-0.266-0.322c-0.123-0.068-0.333-0.102-0.627-0.102h-0.33V57.788
			L178.446,57.788z M183.709,57.788h3.192l4.774,8.44v-6.424c0-0.383-0.036-0.661-0.104-0.827c-0.069-0.168-0.174-0.294-0.313-0.383
			c-0.141-0.085-0.345-0.129-0.619-0.129h-0.269v-0.678h3.484v0.678h-0.187c-0.308,0-0.517,0.027-0.625,0.079
			c-0.155,0.077-0.271,0.216-0.348,0.416c-0.076,0.198-0.115,0.479-0.115,0.844v9.239h-0.905L185.935,58.9v8.044
			c0,0.443,0.013,0.714,0.038,0.81c0.033,0.124,0.098,0.237,0.189,0.34c0.093,0.102,0.2,0.17,0.325,0.209
			c0.123,0.036,0.373,0.058,0.752,0.063v0.678h-3.53v-0.678h0.187c0.361,0,0.604-0.039,0.731-0.113
			c0.128-0.074,0.228-0.204,0.297-0.386s0.105-0.49,0.105-0.923v-7.14c0-0.449-0.011-0.722-0.031-0.818
			c-0.043-0.185-0.13-0.317-0.258-0.399c-0.128-0.08-0.382-0.121-0.761-0.121h-0.271V57.788L183.709,57.788z M195.14,57.788h8.505
			l0.981,2.955l-0.66,0.268c-0.166-0.484-0.345-0.865-0.542-1.141c-0.194-0.278-0.43-0.512-0.703-0.705
			c-0.273-0.195-0.548-0.322-0.827-0.389c-0.278-0.063-0.782-0.096-1.509-0.096h-2.544v4.132h1.265c0.465,0,0.816-0.086,1.054-0.256
			c0.238-0.169,0.404-0.38,0.494-0.637c0.068-0.188,0.105-0.519,0.105-0.986v-0.188h0.736v4.942h-0.736v-0.427
			c0-0.378-0.026-0.65-0.08-0.816c-0.051-0.167-0.148-0.324-0.289-0.473c-0.141-0.149-0.291-0.248-0.455-0.304
			c-0.161-0.053-0.44-0.08-0.829-0.08h-1.265v3.647c0,0.38,0.017,0.611,0.049,0.694c0.033,0.082,0.088,0.143,0.161,0.182
			c0.077,0.036,0.282,0.055,0.617,0.055h1.573c0.878,0,1.563-0.112,2.057-0.339c0.494-0.226,0.93-0.569,1.306-1.035
			c0.294-0.361,0.578-0.873,0.847-1.534l0.684,0.259l-1.168,3.526h-8.826v-0.678h0.299c0.349,0,0.563-0.025,0.647-0.072
			c0.131-0.071,0.23-0.182,0.3-0.339c0.048-0.104,0.074-0.339,0.074-0.696v-7.752c0-0.353-0.033-0.59-0.097-0.708
			c-0.064-0.118-0.178-0.212-0.336-0.275c-0.085-0.039-0.381-0.058-0.888-0.058V57.788L195.14,57.788z M213.22,57.788h0.54
			l0.802,3.471l-0.691,0.231c-0.44-0.97-1.025-1.735-1.755-2.292c-0.602-0.466-1.267-0.699-1.996-0.699
			c-0.44,0-0.836,0.085-1.187,0.253c-0.349,0.171-0.611,0.389-0.786,0.658c-0.176,0.268-0.263,0.543-0.263,0.821
			c0,0.253,0.066,0.496,0.201,0.732c0.136,0.237,0.344,0.446,0.62,0.625c0.273,0.18,0.726,0.369,1.354,0.567l1.959,0.606
			c0.24,0.074,0.589,0.221,1.044,0.436c0.458,0.215,0.813,0.44,1.067,0.68c0.255,0.24,0.455,0.532,0.599,0.879
			c0.146,0.348,0.217,0.722,0.217,1.124c0,0.893-0.363,1.672-1.09,2.342c-0.727,0.669-1.668,1.003-2.821,1.003
			c-0.594,0-1.126-0.094-1.597-0.278c-0.469-0.185-0.975-0.513-1.52-0.986l-0.346,1.083h-0.527l-0.695-4.05l0.691-0.148
			c0.255,0.743,0.593,1.377,1.018,1.895c0.422,0.521,0.891,0.912,1.402,1.179c0.514,0.265,1.035,0.397,1.565,0.397
			c0.721,0,1.354-0.234,1.893-0.7c0.45-0.391,0.676-0.851,0.676-1.383c0-0.487-0.164-0.887-0.488-1.198
			c-0.33-0.311-0.921-0.601-1.771-0.867l-1.873-0.579c-1.052-0.327-1.793-0.746-2.223-1.256c-0.431-0.51-0.646-1.097-0.646-1.755
			c0-0.515,0.141-0.991,0.42-1.43c0.279-0.438,0.708-0.805,1.289-1.099c0.578-0.295,1.214-0.443,1.903-0.443
			c0.578,0,1.134,0.107,1.663,0.325c0.374,0.151,0.72,0.366,1.033,0.646L213.22,57.788L213.22,57.788z M223.354,57.788h0.539
			l0.801,3.471l-0.689,0.231c-0.44-0.97-1.026-1.735-1.756-2.292c-0.602-0.466-1.267-0.699-1.996-0.699
			c-0.439,0-0.836,0.085-1.187,0.253c-0.348,0.171-0.611,0.389-0.786,0.658c-0.176,0.268-0.263,0.543-0.263,0.821
			c0,0.253,0.066,0.496,0.202,0.732c0.135,0.237,0.343,0.446,0.619,0.625c0.273,0.18,0.727,0.369,1.354,0.567l1.959,0.606
			c0.241,0.074,0.589,0.221,1.044,0.436c0.458,0.215,0.814,0.44,1.067,0.68c0.256,0.24,0.455,0.532,0.599,0.879
			c0.146,0.348,0.217,0.722,0.217,1.124c0,0.893-0.362,1.672-1.089,2.342c-0.727,0.669-1.669,1.003-2.823,1.003
			c-0.593,0-1.125-0.094-1.596-0.278c-0.468-0.185-0.975-0.513-1.52-0.986l-0.345,1.083h-0.527l-0.696-4.05l0.69-0.148
			c0.257,0.743,0.594,1.377,1.019,1.895c0.422,0.521,0.891,0.912,1.401,1.179c0.515,0.265,1.036,0.397,1.566,0.397
			c0.721,0,1.354-0.234,1.894-0.7c0.45-0.391,0.675-0.851,0.675-1.383c0-0.487-0.163-0.887-0.488-1.198
			c-0.33-0.311-0.921-0.601-1.771-0.867l-1.873-0.579c-1.051-0.327-1.793-0.746-2.224-1.256c-0.429-0.51-0.644-1.097-0.644-1.755
			c0-0.515,0.14-0.991,0.419-1.43c0.279-0.438,0.709-0.805,1.289-1.099c0.578-0.295,1.213-0.443,1.904-0.443
			c0.577,0,1.133,0.107,1.662,0.325c0.374,0.151,0.72,0.366,1.034,0.646L223.354,57.788z"/>
	</g>
</g>
</svg>
